# xmcd
#
# Track frame offsets: 
#        150
#        11909
#        23794
#        39364
#        52934
#        60052
#        76844
#        91536
#        109760
#        126785
#        136192
#        152840
#        163340
#        184161
#        194448
#
# Disc length: 2858 seconds
#
# Revision: 0
# Processed by: cddbd v1.5.2PL0 Copyright (c) Steve Scherf et al.
# Submitted via: ExactAudioCopy v0.99pb5
#
DISCID=b20b280f
DTITLE=John Lennon  - Roots  Remastered  FLAC
DYEAR=1900
DGENRE=
TTITLE0=Be-Bop-A-Lula
TTITLE1=Ain't That A Shame
TTITLE2=Stand By Me
TTITLE3=Sweet Little Sixteen
TTITLE4=Medley: a) Rip It Up - b) Ready Teddy
TTITLE5=Angel Baby
TTITLE6=Do You Want To Dance
TTITLE7=You Can't Catch Me
TTITLE8=Bony Moronie
TTITLE9=Peggy Sue
TTITLE10=Medley: a) Bring It On Home To Me - b) Send Me Some Lovin'
TTITLE11=Slippin' And Slidin'
TTITLE12=Be My Baby
TTITLE13=Ya Ya
TTITLE14=Just Because
EXTD=
EXTT0=
EXTT1=
EXTT2=
EXTT3=
EXTT4=
EXTT5=
EXTT6=
EXTT7=
EXTT8=
EXTT9=
EXTT10=
EXTT11=
EXTT12=
EXTT13=
EXTT14=
PLAYORDER=
